<?xml version="1.0" encoding="UTF-8" standalone="no"?>
<svg width="183px" height="32px" viewBox="0 0 183 32" version="1.1" xmlns="http://www.w3.org/2000/svg" xmlns:xlink="http://www.w3.org/1999/xlink" xmlns:sketch="http://www.bohemiancoding.com/sketch/ns">
    <!-- Generator: Sketch 3.3 (11970) - http://www.bohemiancoding.com/sketch -->
    <title>logo</title>
    <desc>Created with Sketch.</desc>
    <defs></defs>
    <g id="Page-1" stroke="none" stroke-width="1" fill="none" fill-rule="evenodd" sketch:type="MSPage">
        <g id="logo" sketch:type="MSLayerGroup" fill="#2196F3">
            <path d="M9.898,24.915 L13.796,23.83 L26.106,11.55 L20.38,5.964 L20.378,5.964 L8.136,18.174 L6,26 L9.898,24.915 Z M28,15.312 L32,11.314 L32,26 C32,29.314 29.314,32 26,32 L6,32 C2.686,32 0,29.314 0,26 L0,6 C0,2.686 2.686,0 6,0 L20.684,0 L16.676,4 L6,4 C4.896,4 4,4.896 4,6 L4,26 C4,27.106 4.896,28 6,28 L26,28 C27.106,28 28,27.106 28,26 L28,15.312 Z M30.828,6.83 L27.85,9.808 L22.106,4.24 L25.172,1.174 C26.732,-0.388 29.266,-0.388 30.828,1.174 C32.39,2.734 32.39,5.266 30.828,6.83 Z" id="Shape" sketch:type="MSShapeGroup"></path>
            <path d="M53.828,24.244 C54.7240045,24.5426682 55.5639961,24.9719972 56.348,25.532 L53.856,28.808 C52.7546612,27.6693276 51.6580055,26.8106696 50.566,26.232 C49.4739945,25.6533304 48.0973416,25.364 46.436,25.364 C44.7373248,25.364 43.2580063,24.9720039 41.998,24.188 C40.7379937,23.4039961 39.7673367,22.2606742 39.086,20.758 C38.4046633,19.2553258 38.064,17.4400106 38.064,15.312 C38.064,13.2213229 38.4139965,11.4153409 39.114,9.894 C39.8140035,8.37265906 40.8126602,7.20600406 42.11,6.394 C43.4073398,5.58199594 44.9333246,5.176 46.688,5.176 C48.4613422,5.176 49.9919936,5.5726627 51.28,6.366 C52.5680064,7.1593373 53.5573299,8.31199244 54.248,9.824 C54.9386701,11.3360076 55.284,13.1653226 55.284,15.312 C55.284,17.4960109 54.8733374,19.2646599 54.052,20.618 C53.2306626,21.9713401 52.1293402,23.0306628 50.748,23.796 C51.9053391,23.796 52.9319955,23.9453318 53.828,24.244 L53.828,24.244 Z M43.496,20.688 C44.2240036,21.8080056 45.287993,22.368 46.688,22.368 C48.1066738,22.368 49.1706631,21.8126722 49.88,20.702 C50.5893369,19.5913278 50.944,17.7946791 50.944,15.312 C50.944,12.8293209 50.5893369,11.0326722 49.88,9.922 C49.1706631,8.81132778 48.1066738,8.256 46.688,8.256 C45.2693262,8.256 44.2006703,8.8159944 43.482,9.936 C42.7633297,11.0560056 42.404,12.8479877 42.404,15.312 C42.404,17.7760123 42.7679964,19.5679944 43.496,20.688 L43.496,20.688 Z M70.404,25 L66.96,25 L66.764,23.012 C66.2413307,23.8333374 65.6066704,24.4446647 64.86,24.846 C64.1133296,25.2473353 63.2453383,25.448 62.256,25.448 C60.9119933,25.448 59.8853369,25.0420041 59.176,24.23 C58.4666631,23.4179959 58.112,22.2840073 58.112,20.828 L58.112,10.16 L62.088,10.16 L62.088,20.324 C62.088,21.1080039 62.2186654,21.6633317 62.48,21.99 C62.7413346,22.3166683 63.1519972,22.48 63.712,22.48 C64.7760053,22.48 65.6813296,21.8360064 66.428,20.548 L66.428,10.16 L70.404,10.16 L70.404,25 Z M78.3,25 L74.324,25 L74.324,10.16 L78.3,10.16 L78.3,25 Z M78.034,3.174 C78.4913356,3.61266886 78.72,4.16799664 78.72,4.84 C78.72,5.51200336 78.4913356,6.06733114 78.034,6.506 C77.5766644,6.94466886 76.9933369,7.164 76.284,7.164 C75.5746631,7.164 74.9960022,6.94466886 74.548,6.506 C74.0999978,6.06733114 73.876,5.51200336 73.876,4.84 C73.876,4.16799664 74.0999978,3.61266886 74.548,3.174 C74.9960022,2.73533114 75.5746631,2.516 76.284,2.516 C76.9933369,2.516 77.5766644,2.73533114 78.034,3.174 L78.034,3.174 Z M91.082,10.146 C91.8753373,10.4353348 92.6266631,10.8879969 93.336,11.504 L91.6,13.856 C91.1146642,13.4826648 90.6433356,13.2120008 90.186,13.044 C89.7286644,12.8759992 89.229336,12.792 88.688,12.792 C86.5786561,12.792 85.524,14.4159838 85.524,17.664 C85.524,19.3066749 85.794664,20.4826631 86.336,21.192 C86.877336,21.9013369 87.651995,22.256 88.66,22.256 C89.1826693,22.256 89.6586645,22.1766675 90.088,22.018 C90.5173355,21.8593325 91.0213304,21.5933352 91.6,21.22 L93.336,23.712 C91.9173262,24.8693391 90.2933425,25.448 88.464,25.448 C87.0079927,25.448 85.7433387,25.1306698 84.67,24.496 C83.5966613,23.8613302 82.7706696,22.9606725 82.192,21.794 C81.6133304,20.6273275 81.324,19.2600078 81.324,17.692 C81.324,16.1239922 81.6133304,14.738006 82.192,13.534 C82.7706696,12.329994 83.5966613,11.3920034 84.67,10.72 C85.7433387,10.0479966 86.9893262,9.712 88.408,9.712 C89.3973383,9.712 90.2886627,9.85666522 91.082,10.146 L91.082,10.146 Z M99.58,25 L95.604,25 L95.604,4.252 L99.58,3.804 L99.58,25 Z M103.864,16.684 L109.016,25 L104.508,25 L99.72,16.88 L104.48,10.16 L108.596,10.16 L103.864,16.684 Z M125.48,25 L120.188,25 L114.028,9.628 C114.196001,10.95334 114.331333,12.1993275 114.434,13.366 C114.536667,14.5326725 114.588,15.8999922 114.588,17.468 L114.588,25 L110.864,25 L110.864,5.624 L116.044,5.624 L122.316,21.024 C121.942665,18.5226542 121.756,16.2266771 121.756,14.136 L121.756,5.624 L125.48,5.624 L125.48,25 Z M140.936,11.798 C142.186673,13.1886736 142.812,15.1159877 142.812,17.58 C142.812,19.1480078 142.527336,20.5246607 141.958,21.71 C141.388664,22.8953393 140.567339,23.8146634 139.494,24.468 C138.420661,25.1213366 137.156007,25.448 135.7,25.448 C133.478656,25.448 131.738006,24.7526736 130.478,23.362 C129.217994,21.9713264 128.588,20.0440123 128.588,17.58 C128.588,16.0119922 128.872664,14.6353393 129.442,13.45 C130.011336,12.2646607 130.832661,11.3453366 131.906,10.692 C132.979339,10.0386634 134.253326,9.712 135.728,9.712 C137.949344,9.712 139.685327,10.4073264 140.936,11.798 L140.936,11.798 Z M133.474,13.87 C132.979331,14.6633373 132.732,15.8999916 132.732,17.58 C132.732,19.2600084 132.979331,20.4966627 133.474,21.29 C133.968669,22.0833373 134.710662,22.48 135.7,22.48 C136.689338,22.48 137.431331,22.0833373 137.926,21.29 C138.420669,20.4966627 138.668,19.2600084 138.668,17.58 C138.668,15.8999916 138.425336,14.6633373 137.94,13.87 C137.454664,13.0766627 136.717338,12.68 135.728,12.68 C134.719995,12.68 133.968669,13.0766627 133.474,13.87 L133.474,13.87 Z M154.712,24.3 C154.170664,24.6733352 153.559337,24.957999 152.878,25.154 C152.196663,25.350001 151.520003,25.448 150.848,25.448 C149.317326,25.4293332 148.160004,24.990671 147.376,24.132 C146.591996,23.273329 146.2,22.0133416 146.2,20.352 L146.2,12.96 L143.988,12.96 L143.988,10.16 L146.2,10.16 L146.2,6.912 L150.176,6.436 L150.176,10.16 L153.592,10.16 L153.2,12.96 L150.176,12.96 L150.176,20.268 C150.176,20.9773369 150.297332,21.4906651 150.54,21.808 C150.782668,22.1253349 151.155997,22.284 151.66,22.284 C152.182669,22.284 152.742664,22.1066684 153.34,21.752 L154.712,24.3 Z M168.656,18.784 L159.388,18.784 C159.518667,20.1280067 159.882664,21.0799972 160.48,21.64 C161.077336,22.2000028 161.889328,22.48 162.916,22.48 C163.55067,22.48 164.147997,22.3773344 164.708,22.172 C165.268003,21.9666656 165.874663,21.6400022 166.528,21.192 L168.18,23.432 C166.518658,24.7760067 164.642677,25.448 162.552,25.448 C160.218655,25.448 158.426673,24.748007 157.176,23.348 C155.925327,21.947993 155.3,20.0533453 155.3,17.664 C155.3,16.1519924 155.565997,14.794006 156.098,13.59 C156.630003,12.385994 157.404662,11.4386701 158.422,10.748 C159.439338,10.0573299 160.647993,9.712 162.048,9.712 C164.157344,9.712 165.799994,10.37466 166.976,11.7 C168.152006,13.02534 168.74,14.8733215 168.74,17.244 C168.74,17.4306676 168.712,17.9439958 168.656,18.784 L168.656,18.784 Z M164.792,16.124 C164.792,13.6599877 163.905342,12.428 162.132,12.428 C161.310663,12.428 160.676002,12.7313303 160.228,13.338 C159.779998,13.9446697 159.500001,14.9293265 159.388,16.292 L164.792,16.292 L164.792,16.124 Z M181.984,11.504 L180.472,13.772 C179.221327,12.9879961 177.989339,12.596 176.776,12.596 C176.122663,12.596 175.618668,12.7173321 175.264,12.96 C174.909332,13.2026679 174.732,13.5293313 174.732,13.94 C174.732,14.2386682 174.811333,14.4906656 174.97,14.696 C175.128667,14.9013344 175.427331,15.0973324 175.866,15.284 C176.304669,15.4706676 176.962662,15.6946654 177.84,15.956 C179.408008,16.3853355 180.574663,16.9593297 181.34,17.678 C182.105337,18.3966703 182.488,19.3813271 182.488,20.632 C182.488,21.6213383 182.203336,22.4799964 181.634,23.208 C181.064664,23.9360036 180.294672,24.4913314 179.324,24.874 C178.353328,25.2566686 177.270673,25.448 176.076,25.448 C174.825327,25.448 173.686672,25.2566686 172.66,24.874 C171.633328,24.4913314 170.756004,23.9640034 170.028,23.292 L171.988,21.108 C173.238673,22.0786715 174.563993,22.564 175.964,22.564 C176.71067,22.564 177.303331,22.4193348 177.742,22.13 C178.180669,21.8406652 178.4,21.4440025 178.4,20.94 C178.4,20.547998 178.316001,20.2400011 178.148,20.016 C177.979999,19.7919989 177.672002,19.582001 177.224,19.386 C176.775998,19.189999 176.076005,18.9613346 175.124,18.7 C173.630659,18.2893313 172.52467,17.7060038 171.806,16.95 C171.08733,16.1939962 170.728,15.2560056 170.728,14.136 C170.728,13.2959958 170.970664,12.5400034 171.456,11.868 C171.941336,11.1959966 172.627329,10.6686686 173.514,10.286 C174.400671,9.90333142 175.431994,9.712 176.608,9.712 C178.698677,9.712 180.490659,10.3093274 181.984,11.504 L181.984,11.504 Z" id="QuickNotes-Copy" sketch:type="MSShapeGroup"></path>
        </g>
    </g>
</svg>
